<svg id="visual" viewBox="0 0 900 1300" width="900" height="1300" xmlns="http://www.w3.org/2000/svg" xmlns:xlink="http://www.w3.org/1999/xlink" version="1.1"><rect width="900" height="1300" fill="#222021"></rect><g><g transform="translate(68 822)"><path d="M142.5 -111.4C172.8 -75.7 177.2 -17.1 163.9 35.9C150.6 89 119.6 136.5 74.3 161C28.9 185.4 -30.8 186.7 -69 161.3C-107.2 136 -123.9 84 -134.1 32.5C-144.4 -19.1 -148.3 -70.2 -124.9 -104.3C-101.5 -138.4 -50.7 -155.5 2.7 -157.6C56.1 -159.8 112.3 -147 142.5 -111.4Z" stroke="#404040" fill="none" stroke-width="19"></path></g><g transform="translate(876 698)"><path d="M105.4 -85C131.8 -51 145.1 -7.4 138.8 36.3C132.5 80 106.6 123.9 70.6 137.8C34.6 151.8 -11.6 135.8 -44.8 112.4C-78.1 89 -98.4 58 -112.3 19.3C-126.1 -19.4 -133.5 -65.9 -113.7 -98.4C-94 -130.9 -47 -149.5 -3.7 -146.5C39.5 -143.6 79 -119.1 105.4 -85Z" stroke="#404040" fill="none" stroke-width="19"></path></g><g transform="translate(211 274)"><path d="M118.7 -92.1C142 -65.5 140.8 -16.8 128.7 26.7C116.7 70.2 93.7 108.6 58.6 128C23.4 147.4 -24 147.9 -60.5 129C-97 110.2 -122.5 72 -131 31C-139.5 -10 -130.9 -53.8 -106.2 -80.7C-81.6 -107.6 -40.8 -117.6 3.5 -120.4C47.7 -123.2 95.4 -118.6 118.7 -92.1Z" stroke="#404040" fill="none" stroke-width="19"></path></g></g></svg>